<?xml version="1.0" standalone="no"?>
<!DOCTYPE svg PUBLIC "-//W3C//DTD SVG 1.1//EN" "http://www.w3.org/Graphics/SVG/1.1/DTD/svg11.dtd">
<svg xmlns="http://www.w3.org/2000/svg" width="63" height="62" viewBox="0 0 63 62" fill="none">
<path d="M53 30.2512C52.9 18.3512 43.1 8.55117 31.2 8.45117H31C24.6 8.45117 18.7 10.3512 13.7 13.7512L17 17.0512C17.1 17.1512 17.2 17.3512 17.3 17.4512C14.9 15.4512 11.4 15.5512 9.2 17.7512C3 24.0512 3 34.1512 9.3 40.4512L4.3 35.4512C3 34.1512 2 32.6512 1.2 31.0512C0.4 33.6512 0 36.5512 0 39.4512V39.6512C0.1 51.5512 9.9 61.3512 21.8 61.4512C22.8 61.4512 23.9 61.4512 25 61.3512C39.6 59.9512 51.5 48.0512 52.9 33.4512C53 32.3512 53 31.2512 53 30.2512ZM33.3 41.8512C31 44.1512 27.2 44.1512 24.8 41.8512L22 38.9512C21.6 38.5512 21.3 38.1512 21.1 37.7512C23.4 39.0512 26.4 38.7512 28.3 36.8512C30.6 34.5512 34.4 34.5512 36.8 36.8512L41 41.0512C41.1 41.1512 41.2 41.3512 41.3 41.4512C39 39.5512 35.5 39.5512 33.3 41.8512Z" fill="#FFA033"/>
<path d="M40.3943 26.434C39.3923 25.9621 38.5731 26.7202 38.1012 27.7243C37.0651 29.9251 36.3507 31.7956 35.0515 33.8237C33.1639 36.7716 31.1632 39.3462 30.5427 42.1695H14.4781C13.8556 39.3462 12.3516 37.2367 10.462 34.2929C7.76112 30.076 4.6302 25.0105 4.6302 20.0807C4.6302 11.2231 13.6528 2.03389 22.5104 2.03389C28.6551 2.03389 35.0503 5.65157 37.7863 11.1569C38.2803 12.1509 39.5128 14.0199 40.5028 13.5279C41.4967 13.0339 40.9947 12.1488 40.5028 11.1569C37.083 4.27318 30.1893 0 22.5104 0C11.4379 0 2.42969 9.00822 2.42969 20.0807C2.42969 26.1873 5.68678 31.2677 8.56033 35.7517C10.0503 38.0731 11.472 40.298 12.1126 42.2418C11.1809 42.4145 10.462 43.1957 10.462 44.1776V52.2099C10.462 53.3204 11.3616 54.218 12.4701 54.218C12.4701 57.5393 15.1729 60.2422 18.4943 60.2422H26.5266C29.8479 60.2422 32.5508 57.5393 32.5508 54.218C33.6592 54.218 34.5589 53.3204 34.5589 52.2099V44.1776C34.5589 43.1957 33.84 42.4145 32.9082 42.2418C33.5488 40.296 34.9705 38.0731 36.4605 35.7517C37.83 33.6172 39.2457 31.4063 40.3943 28.9705C40.8662 27.9664 41.3963 26.9079 40.3943 26.434ZM28.3656 58.1433H16.675C15.5686 58.1433 14.2509 55.3264 14.2509 54.218L30.8288 54.468C30.8288 55.5764 29.472 58.1433 28.3656 58.1433ZM32.0018 52.2099H13.0779V44.1776H32.0018V52.2099Z" fill="black"/>
<path d="M56.6485 14.0567C55.8554 14.0567 55.1023 14.2193 54.4075 14.4984C53.7147 11.9382 51.3934 10.0405 48.6162 10.0405C45.2949 10.0405 42.592 12.7434 42.592 16.0647C42.592 16.7736 42.7366 17.4423 42.9635 18.0728H16.4871C15.3786 18.0728 14.479 18.9724 14.479 20.0809C14.479 21.1893 15.3786 22.089 16.4871 22.089H18.4952V24.097C18.4952 25.2055 19.3948 26.1051 20.5032 26.1051C21.6117 26.1051 22.5113 25.2055 22.5113 24.097V22.089H24.5194V24.097C24.5194 25.2055 25.419 26.1051 26.5274 26.1051C27.6359 26.1051 28.5355 25.2055 28.5355 24.097V22.089H42.9615C42.7366 22.7195 42.592 23.3882 42.592 24.097C42.592 27.4184 45.2949 30.1213 48.6162 30.1213C51.3934 30.1213 53.7147 28.2236 54.4075 25.6633C55.1023 25.9425 55.8554 26.1051 56.6485 26.1051C59.9699 26.1051 62.6728 23.4022 62.6728 20.0809C62.6728 16.7595 59.9699 14.0567 56.6485 14.0567ZM48.6162 28.0344C47.5098 28.0344 44.9892 26.8059 44.9892 24.097C44.9892 22.9906 45.4784 20.7235 48.6162 20.7235C49.7227 20.7235 51.8876 21.6293 52.0726 24.097C52.19 25.6633 51.441 28.0344 48.6162 28.0344ZM48.6162 19.5587C45.828 19.4034 44.9892 17.1712 44.9892 16.0647C45.1601 13.2365 47.5098 12.4627 48.6162 12.4627C51.2493 12.4627 52.0726 14.9583 52.0726 16.0647C52.0726 17.1712 51.4668 19.4655 48.6162 19.5587ZM56.8241 24.097C55.7176 24.097 52.616 23.3655 52.616 20.0809C52.616 18.9744 53.8354 16.0647 56.8241 16.0647C57.9305 16.0647 60.7214 16.886 60.7214 20.0809C60.7214 21.1873 59.9802 24.097 56.8241 24.097Z" fill="black"/>
</svg>