<?xml version="1.0" standalone="no"?>
<!DOCTYPE svg PUBLIC "-//W3C//DTD SVG 1.1//EN" "http://www.w3.org/Graphics/SVG/1.1/DTD/svg11.dtd">
<svg xmlns="http://www.w3.org/2000/svg" width="64" height="64" viewBox="0 0 64 64" fill="none">
<path d="M63 31.8C62.9 19.9 53.1 10.1 41.2 10H41C34.6 10 28.7 11.9 23.7 15.3L27 18.6C27.1 18.7 27.2 18.9 27.3 19C24.9 17 21.4 17.1 19.2 19.3C13 25.6 13 35.7 19.3 42L14.3 37C13 35.7 12 34.2 11.2 32.6C10.4 35.2 10 38.1 10 41V41.2C10.1 53.1 19.9 62.9 31.8 63C32.8 63 33.9 63 35 62.9C49.6 61.5 61.5 49.6 62.9 35C63 33.9 63 32.8 63 31.8ZM43.3 43.4C41 45.7 37.2 45.7 34.8 43.4L32 40.5C31.6 40.1 31.3 39.7 31.1 39.3C33.4 40.6 36.4 40.3 38.3 38.4C40.6 36.1 44.4 36.1 46.8 38.4L51 42.6C51.1 42.7 51.2 42.9 51.3 43C49 41.1 45.5 41.1 43.3 43.4Z" fill="#FFA033"/>
<path d="M32 64C14.4 64 0 49.6 0 32C0 14.4 14.4 0 32 0C49.6 0 64 14.4 64 32C64 38.4 62.1 44.5 58.6 49.8C58.3 50.3 57.7 50.4 57.2 50.1C56.7 49.8 56.6 49.2 56.9 48.7C60.3 43.7 62 38 62 32C62 15.5 48.5 2 32 2C15.5 2 2 15.5 2 32C2 48.5 15.5 62 32 62C37.1 62 43.9 60.6 48 56.5C52.3 52.2 52.3 45.2 48 40.9L46.1 39C45.2 38.1 43.9 37.5 42.6 37.5C41.3 37.5 40 38 39.1 39C36.4 41.7 31.9 41.7 29.2 39L26.4 36.2C25.1 34.9 24.3 33.1 24.3 31.3C24.3 29.5 25 27.7 26.4 26.4C28.3 24.5 28.3 21.3 26.4 19.3L22.1 15C21.2 14.1 19.9 13.5 18.6 13.5C17.3 13.5 16 14 15.1 15C9.3 20.8 9.3 30.4 15.1 36.2L27.7 48.7C30 51 33 52.2 36.2 52.2C39.4 52.2 42.4 51 44.7 48.7C45.1 48.3 45.7 48.3 46.1 48.7C46.5 49.1 46.5 49.7 46.1 50.1C43.5 52.7 39.9 54.2 36.2 54.2C32.5 54.2 28.9 52.7 26.3 50.1L13.6 37.7C7 31 7 20.2 13.6 13.6C14.9 12.3 16.7 11.5 18.6 11.5C20.5 11.5 22.2 12.2 23.5 13.6L27.7 17.8C30.4 20.5 30.4 25 27.7 27.7C26.8 28.6 26.2 29.9 26.2 31.2C26.2 32.5 26.7 33.8 27.7 34.7L30.5 37.5C32.4 39.4 35.6 39.4 37.6 37.5C38.9 36.2 40.7 35.4 42.6 35.4C44.5 35.4 46.2 36.1 47.5 37.5L49.4 39.4C51.9 41.9 53.2 45.1 53.2 48.6C53.2 52.1 51.8 55.3 49.4 57.8C44.9 62.4 37.5 64 32 64Z" fill="#2A3671"/>
</svg>