<?xml version="1.0" standalone="no"?>
<!DOCTYPE svg PUBLIC "-//W3C//DTD SVG 1.1//EN" "http://www.w3.org/Graphics/SVG/1.1/DTD/svg11.dtd">
<svg xmlns="http://www.w3.org/2000/svg" width="61" height="61" viewBox="0 0 61 61" fill="none">
<path d="M61 29.8C60.9 17.9 51.1 8.1 39.2 8H39C32.6 8 26.7 9.9 21.7 13.3L25 16.6C25.1 16.7 25.2 16.9 25.3 17C22.9 15 19.4 15.1 17.2 17.3C11 23.6 11 33.7 17.3 40L12.3 35C11 33.7 10 32.2 9.2 30.6C8.4 33.2 8 36.1 8 39V39.2C8.1 51.1 17.9 60.9 29.8 61C30.8 61 31.9 61 33 60.9C47.6 59.5 59.5 47.6 60.9 33C61 31.9 61 30.8 61 29.8ZM41.3 41.4C39 43.7 35.2 43.7 32.8 41.4L30 38.5C29.6 38.1 29.3 37.7 29.1 37.3C31.4 38.6 34.4 38.3 36.3 36.4C38.6 34.1 42.4 34.1 44.8 36.4L49 40.6C49.1 40.7 49.2 40.9 49.3 41C47 39.1 43.5 39.1 41.3 41.4Z" fill="#FFA033"/>
<path d="M9.61692 29.6363H19.6953V30.6363H9.61031V30.6362L9.59992 30.6364C7.29143 30.6844 5.05803 29.8154 3.38896 28.2199C1.72282 26.6272 0.754626 24.4401 0.695468 22.1363C0.754626 19.8324 1.72282 17.6453 3.38896 16.0526C5.05803 14.4571 7.29143 13.5882 9.59992 13.6362L9.59992 13.6363H9.61031H39.6953V14.6363H9.61693C7.57656 14.5832 5.59798 15.3398 4.11366 16.7411C2.62768 18.1439 1.75817 20.0784 1.69555 22.1209L1.69508 22.1363L1.69555 22.1516C1.75817 24.1942 2.62768 26.1287 4.11366 27.5315C5.59798 28.9327 7.57655 29.6894 9.61692 29.6363ZM50.9953 52.6363H20.6953V51.6363H50.9953C52.9844 51.6363 54.8921 50.8461 56.2986 49.4396C57.7051 48.0331 58.4953 46.1254 58.4953 44.1363C58.4953 42.1471 57.7051 40.2395 56.2986 38.833C54.8921 37.4264 52.9844 36.6363 50.9953 36.6363H41.6953V35.6363H50.9953C53.2497 35.6363 55.4117 36.5318 57.0057 38.1259C58.5998 39.7199 59.4953 41.8819 59.4953 44.1363C59.4953 46.3906 58.5998 48.5526 57.0057 50.1467C55.4117 51.7407 53.2497 52.6363 50.9953 52.6363Z" fill="#941B0C" stroke="#2A3671"/>
<path d="M8.19531 48.6362C10.1844 48.6362 12.0921 49.4264 13.4986 50.8329C14.9051 52.2395 15.6953 54.1471 15.6953 56.1362V59.6362H0.695312V56.1362C0.695312 54.1471 1.48549 52.2395 2.89201 50.8329C4.29853 49.4264 6.20619 48.6362 8.19531 48.6362Z" stroke="#2A3671"/>
<path d="M11.6953 44.1362C11.6953 46.0692 10.1283 47.6362 8.19531 47.6362C6.26232 47.6362 4.69531 46.0692 4.69531 44.1362C4.69531 42.2032 6.26232 40.6362 8.19531 40.6362C10.1283 40.6362 11.6953 42.2032 11.6953 44.1362Z" stroke="#2A3671"/>
<path d="M30.1953 28.6362C32.1844 28.6362 34.0921 29.4264 35.4986 30.8329C36.9051 32.2395 37.6953 34.1471 37.6953 36.1362V39.6362H22.6953V36.1362C22.6953 34.1471 23.4855 32.2395 24.892 30.8329C26.2985 29.4264 28.2062 28.6362 30.1953 28.6362Z" stroke="#2A3671"/>
<path d="M33.6953 24.1362C33.6953 26.0692 32.1283 27.6362 30.1953 27.6362C28.2623 27.6362 26.6953 26.0692 26.6953 24.1362C26.6953 22.2032 28.2623 20.6362 30.1953 20.6362C32.1283 20.6362 33.6953 22.2032 33.6953 24.1362Z" stroke="#2A3671"/>
<path d="M52.1953 8.63623C54.1844 8.63623 56.0921 9.42641 57.4986 10.8329C58.9051 12.2395 59.6953 14.1471 59.6953 16.1362V19.6362H44.6953V16.1362C44.6953 14.1471 45.4855 12.2395 46.892 10.8329C48.2985 9.42641 50.2062 8.63623 52.1953 8.63623Z" stroke="#2A3671"/>
<path d="M55.6953 4.13623C55.6953 6.06923 54.1283 7.63623 52.1953 7.63623C50.2623 7.63623 48.6953 6.06923 48.6953 4.13623C48.6953 2.20323 50.2623 0.63623 52.1953 0.63623C54.1283 0.63623 55.6953 2.20323 55.6953 4.13623Z" stroke="#2A3671"/>
</svg>