<?xml version="1.0" standalone="no"?>
<!DOCTYPE svg PUBLIC "-//W3C//DTD SVG 1.1//EN" "http://www.w3.org/Graphics/SVG/1.1/DTD/svg11.dtd">
<svg xmlns="http://www.w3.org/2000/svg" width="64" height="65" viewBox="0 0 64 65" fill="none">
<path d="M60.7578 33.3732C60.6578 21.4732 50.8578 11.6732 38.9578 11.5732H38.7578C32.3578 11.5732 26.4578 13.4732 21.4578 16.8732L24.7578 20.1732C24.8578 20.2732 24.9578 20.4732 25.0578 20.5732C22.6578 18.5732 19.1578 18.6732 16.9578 20.8732C10.7578 27.1732 10.7578 37.2732 17.0578 43.5732L12.0578 38.5732C10.7578 37.2732 9.75781 35.7732 8.95781 34.1732C8.15781 36.7732 7.75781 39.6732 7.75781 42.5732V42.7732C7.85781 54.6732 17.6578 64.4732 29.5578 64.5732C30.5578 64.5732 31.6578 64.5732 32.7578 64.4732C47.3578 63.0732 59.2578 51.1732 60.6578 36.5732C60.7578 35.4732 60.7578 34.3732 60.7578 33.3732ZM41.0578 44.9732C38.7578 47.2732 34.9578 47.2732 32.5578 44.9732L29.7578 42.0732C29.3578 41.6732 29.0578 41.2732 28.8578 40.8732C31.1578 42.1732 34.1578 41.8732 36.0578 39.9732C38.3578 37.6732 42.1578 37.6732 44.5578 39.9732L48.7578 44.1732C48.8578 44.2732 48.9578 44.4732 49.0578 44.5732C46.7578 42.6732 43.2578 42.6732 41.0578 44.9732Z" fill="#FFA033"/>
<path d="M63.2941 50.213C63.2852 50.0325 63.2327 49.8452 63.1052 49.6727L55.6088 39.5573V13.177C55.6088 10.7567 53.6397 8.78755 51.2184 8.78755H49.2782V3.27879C49.2782 1.47086 47.8073 0 45.9994 0H33.6644C30.2668 0 27.5028 2.76402 27.5028 6.16165V8.78755H12.0901C9.66988 8.78755 7.7007 10.7567 7.7007 13.177V39.5573L0.204338 49.6727C0.0518737 49.8789 -0.0172485 50.2371 0.0036489 50.6837C0.0958943 52.6455 1.92745 56.3142 6.07045 56.3142H57.2469C60.7647 56.3143 63.4358 53.2961 63.2941 50.213ZM2.96539 49.2689L9.188 40.8735H54.1217L60.3443 49.2689H2.96539ZM14.7494 38.8955C15.2353 35.2366 18.3642 32.4016 22.1486 32.4016C25.9383 32.4016 29.0717 35.2365 29.5583 38.8955H14.7494ZM29.4808 6.16152C29.4808 3.85428 31.3572 1.97784 33.6644 1.97784H45.9994C46.7169 1.97784 47.3003 2.56111 47.3003 3.27879V8.93828C47.3003 11.2455 45.4239 13.122 43.1166 13.122H32.4497C32.0961 13.122 31.7688 13.3113 31.592 13.6184L29.4809 17.2893V6.16152H29.4808ZM9.67853 13.177C9.67853 11.8471 10.7603 10.7655 12.09 10.7655H27.5028V17.6756C27.5028 19.5939 30.0466 20.2731 31.0028 18.6104L33.0213 15.0998H43.1166C45.8783 15.0998 48.2212 13.2736 49.0015 10.7654H51.2185C52.5484 10.7654 53.631 11.8471 53.631 13.1769V38.8954H31.5569C31.0608 34.1417 27.0317 30.4237 22.1486 30.4237C17.2718 30.4237 13.2464 34.1417 12.7509 38.8954H9.67853V13.177ZM57.2469 54.3364H6.07045C4.16347 54.3364 2.5587 53.0208 2.11503 51.2507H61.2023C60.7586 53.0208 59.1537 54.3364 57.2469 54.3364Z" fill="black"/>
<path d="M42.7504 44.0837H20.557C20.0103 44.0837 19.568 44.526 19.568 45.0727C19.568 45.6194 20.0103 46.0617 20.557 46.0617H42.7506C43.2972 46.0617 43.7395 45.6194 43.7395 45.0727C43.7395 44.526 43.2971 44.0837 42.7504 44.0837ZM22.1524 28.3194C24.4625 28.3194 26.3419 26.44 26.3419 24.1299V21.7251C26.3419 19.415 24.4625 17.5356 22.1524 17.5356C19.8423 17.5356 17.9629 19.415 17.9629 21.7251V24.1299C17.9629 26.44 19.8423 28.3194 22.1524 28.3194ZM19.9408 21.7251C19.9408 20.5054 20.9327 19.5134 22.1525 19.5134C23.3722 19.5134 24.3642 20.5053 24.3642 21.7251V24.1299C24.3642 25.3496 23.3724 26.3416 22.1525 26.3416C20.9328 26.3416 19.9408 25.3497 19.9408 24.1299V21.7251ZM33.4907 6.52093H43.2875C43.8341 6.52093 44.2764 6.07862 44.2764 5.53195C44.2764 4.98528 43.8341 4.54297 43.2875 4.54297H33.4907C32.944 4.54297 32.5017 4.98528 32.5017 5.53195C32.5017 6.07862 32.944 6.52093 33.4907 6.52093ZM33.4907 10.5568H40.7552C41.3018 10.5568 41.7442 10.1145 41.7442 9.56787C41.7442 9.0212 41.3018 8.57889 40.7552 8.57889H33.4907C32.944 8.57889 32.5017 9.0212 32.5017 9.56787C32.5017 10.1145 32.944 10.5568 33.4907 10.5568Z" fill="black"/>
</svg>