<svg width="181" height="35" viewBox="0 0 181 35" fill="none" xmlns="http://www.w3.org/2000/svg">
<path d="M53.312 9.16C55.2 9.16 56.664 9.608 57.704 10.504C58.76 11.384 59.288 12.56 59.288 14.032C59.288 15.648 58.768 16.88 57.728 17.728C56.688 18.576 55.224 19 53.336 19L52.952 19.216H49.808V25H45.752V9.16H53.312ZM52.736 16.288C53.536 16.288 54.136 16.128 54.536 15.808C54.936 15.488 55.136 14.976 55.136 14.272C55.136 13.584 54.936 13.08 54.536 12.76C54.136 12.44 53.536 12.28 52.736 12.28H49.808V16.288H52.736ZM55.16 17.152L60.224 25H55.664L51.608 18.064L55.16 17.152ZM66.4269 9.16V25H62.2989V9.16H66.4269ZM76.4915 25.24C75.0835 25.24 73.8275 24.928 72.7235 24.304C71.6355 23.68 70.7875 22.76 70.1795 21.544C69.5715 20.328 69.2675 18.848 69.2675 17.104C69.2675 15.392 69.5875 13.928 70.2275 12.712C70.8675 11.496 71.7795 10.56 72.9635 9.904C74.1635 9.248 75.5715 8.92 77.1875 8.92C78.9795 8.92 80.4275 9.248 81.5315 9.904C82.6355 10.544 83.4915 11.568 84.0995 12.976L80.2835 14.488C80.0755 13.672 79.7075 13.08 79.1795 12.712C78.6515 12.344 77.9955 12.16 77.2115 12.16C76.4275 12.16 75.7555 12.352 75.1955 12.736C74.6355 13.104 74.2115 13.656 73.9235 14.392C73.6355 15.112 73.4915 16.008 73.4915 17.08C73.4915 18.2 73.6355 19.136 73.9235 19.888C74.2275 20.64 74.6675 21.2 75.2435 21.568C75.8355 21.92 76.5635 22.096 77.4275 22.096C77.8915 22.096 78.3155 22.04 78.6995 21.928C79.0835 21.816 79.4195 21.656 79.7075 21.448C79.9955 21.224 80.2195 20.952 80.3795 20.632C80.5395 20.296 80.6195 19.904 80.6195 19.456V19.216H76.9955V16.456H84.1235V25H81.3155L81.0035 21.28L81.6755 21.856C81.3395 22.944 80.7315 23.784 79.8515 24.376C78.9875 24.952 77.8675 25.24 76.4915 25.24ZM101.587 9.16V25H97.4593V9.16H101.587ZM91.4113 9.16V25H87.2833V9.16H91.4113ZM99.6673 15.424V18.616H89.2993V15.424H99.6673ZM118.416 9.16V12.352H113.256V25H109.128V12.352H103.944V9.16H118.416ZM133.413 8.92C134.885 8.92 136.181 9.152 137.301 9.616C138.437 10.064 139.421 10.728 140.253 11.608L138.261 14.272C137.573 13.552 136.829 13.016 136.029 12.664C135.245 12.296 134.349 12.112 133.341 12.112C132.749 12.112 132.269 12.176 131.901 12.304C131.533 12.432 131.269 12.608 131.109 12.832C130.949 13.056 130.869 13.312 130.869 13.6C130.869 13.936 131.021 14.224 131.325 14.464C131.645 14.688 132.157 14.88 132.861 15.04L135.525 15.64C137.109 16.008 138.269 16.544 139.005 17.248C139.741 17.952 140.109 18.888 140.109 20.056C140.109 21.176 139.821 22.128 139.245 22.912C138.669 23.68 137.877 24.264 136.869 24.664C135.861 25.048 134.709 25.24 133.413 25.24C132.357 25.24 131.349 25.128 130.389 24.904C129.429 24.664 128.565 24.328 127.797 23.896C127.029 23.464 126.381 22.968 125.853 22.408L127.845 19.648C128.245 20.112 128.733 20.528 129.309 20.896C129.901 21.248 130.541 21.528 131.229 21.736C131.933 21.944 132.645 22.048 133.365 22.048C133.925 22.048 134.389 21.992 134.757 21.88C135.141 21.768 135.421 21.6 135.597 21.376C135.773 21.152 135.861 20.888 135.861 20.584C135.861 20.248 135.741 19.968 135.501 19.744C135.261 19.504 134.805 19.304 134.133 19.144L131.205 18.496C130.309 18.288 129.509 18.016 128.805 17.68C128.117 17.328 127.573 16.864 127.173 16.288C126.773 15.696 126.573 14.96 126.573 14.08C126.573 13.088 126.845 12.208 127.389 11.44C127.933 10.656 128.717 10.04 129.741 9.592C130.765 9.144 131.989 8.92 133.413 8.92ZM146.818 9.16V25H142.69V9.16H146.818ZM157.05 9.16C159.53 9.16 161.426 9.848 162.738 11.224C164.066 12.6 164.73 14.552 164.73 17.08C164.73 19.608 164.066 21.56 162.738 22.936C161.426 24.312 159.53 25 157.05 25H150.33V9.16H157.05ZM156.642 21.88C157.986 21.88 158.962 21.48 159.57 20.68C160.194 19.864 160.506 18.664 160.506 17.08C160.506 15.496 160.194 14.304 159.57 13.504C158.962 12.688 157.986 12.28 156.642 12.28H154.458V21.88H156.642ZM167.557 25V9.16H179.893V12.352H171.685V15.568H178.213V18.568H171.685V21.808H180.205V25H167.557Z" fill="#2A3671"/>
<rect x="2" y="2" width="33" height="30.8595" rx="5" stroke="#2A3671" stroke-width="4" stroke-linejoin="round"/>
<path fill-rule="evenodd" clip-rule="evenodd" d="M17.8379 9.42137L26.4011 7.22028C26.4011 7.22028 29.341 6.30759 28.9671 8.19779C28.5933 10.0876 26.7367 17.4675 26.7367 17.4675C26.7367 17.4675 26.2073 19.5321 25.2013 18.8135C24.1953 18.0949 24.0127 16.1563 23.8453 16.001C23.6779 15.8454 23.1514 15.7009 22.4355 16.3744C21.7197 17.0482 10.8889 28 10.8889 28L8 25.1515L19.9288 13.385C19.9288 13.385 20.8958 12.4663 19.3222 11.9226C17.7486 11.3784 17.291 11.3912 16.9235 10.5561C16.5564 9.72107 17.8379 9.42137 17.8379 9.42137Z" fill="#2A3671"/>
</svg>
